<svg width="34" height="32" viewBox="0 0 34 32" fill="none" xmlns="http://www.w3.org/2000/svg">
<path d="M29.5532 4.94174C26.4124 6.01053 23.2716 7.07931 20.1307 8.1481C20.4132 8.43612 20.7224 8.72061 21.0084 9.03529C22.2836 6.58666 23.5819 4.10781 24.8571 1.65918C25.0314 1.33756 24.8111 0.905593 24.4966 0.784624C24.1519 0.64054 23.7963 0.823479 23.6221 1.1451C22.3469 3.59373 21.0486 6.07259 19.7734 8.52122C19.4675 9.07739 20.1587 9.58238 20.651 9.40838C23.7919 8.33959 26.9327 7.27081 30.0735 6.20202C30.4095 6.07596 30.5696 5.6477 30.4169 5.31529C30.2873 4.95268 29.8927 4.84233 29.5532 4.94174Z" fill="black"/>
<path d="M25.8618 10.2349C23.4569 10.7175 21.0876 11.4666 18.8336 12.4717C17.7066 12.9743 16.5903 13.5568 15.5041 14.1625C15.4277 14.1998 15.2446 14.2513 15.1984 14.3117C15.1291 14.4023 15.1415 14.2921 15.209 14.3917C15.3174 14.5943 15.298 14.2442 15.3104 14.134C15.4759 13.5422 15.6681 12.9469 15.8869 12.348C16.3637 11.0366 16.8974 9.74468 17.4914 8.49903C17.8756 7.71538 16.6406 7.2013 16.2564 7.98495C15.6588 9.20394 15.1216 10.4692 14.6715 11.7771C14.4562 12.4026 14.2409 13.0281 14.0558 13.6768C13.8903 14.2686 13.7994 15.0132 14.3431 15.4293C14.917 15.8685 15.5658 15.6466 16.1204 15.3286C16.7017 15.0072 17.283 14.6857 17.8678 14.3908C19.0873 13.7675 20.3476 13.2472 21.6416 12.7767C23.0654 12.2618 24.5336 11.8766 26.0124 11.5715C26.3554 11.4987 26.6399 11.1896 26.5902 10.8163C26.5744 10.4929 26.2084 10.1888 25.8618 10.2349Z" fill="black"/>
<path d="M18.9261 17.0447C18.0319 17.8691 16.8409 18.2987 15.7673 18.7942C14.5407 19.3643 13.3178 19.961 12.0912 20.5311C11.4797 20.8294 10.8914 21.0976 10.2799 21.3959C10.1768 21.4368 10.0737 21.4776 9.97412 21.5451C9.79458 21.6232 9.8906 21.5291 9.92435 21.5789C9.9208 21.5522 10.1056 21.7175 10.1056 21.7175C10.1056 21.7175 10.2248 21.1862 10.2409 21.1027C10.5808 19.7823 10.9207 18.4619 11.2607 17.1415C11.6593 15.6505 12.0313 14.163 12.43 12.672C12.5172 12.3077 12.1743 11.9735 11.8668 11.9058C11.4794 11.8488 11.1914 12.1313 11.1006 12.469C10.7251 13.9297 10.3531 15.4172 9.95092 16.8815C9.57539 18.3423 9.14298 19.7835 8.82432 21.2639C8.69257 21.9054 8.86827 22.6146 9.55066 22.8495C10.2331 23.0843 10.953 22.5816 11.5414 22.3135C12.8941 21.6724 14.2202 21.0348 15.573 20.3937C16.3142 20.0509 17.0786 19.678 17.8198 19.3352C18.5078 18.9996 19.1921 18.6372 19.7753 18.1256C20.0402 17.8733 20.1239 17.4824 19.8947 17.1872C19.6655 16.8921 19.1946 16.8191 18.9261 17.0447Z" fill="black"/>
<path d="M14.4803 24.4188C14.4784 24.609 14.3789 24.6765 14.2331 24.8044C13.9611 25.0034 13.6322 25.1827 13.33 25.3586C12.7292 25.7369 12.0981 26.0922 11.4972 26.4705C10.2422 27.2343 8.98717 27.998 7.70547 28.7654C7.0513 29.1508 6.40067 29.5629 5.74649 29.9483C5.52072 30.0869 5.32162 30.2219 5.08876 30.3071C5.01233 30.3444 4.95901 30.3515 4.85237 30.3657C4.85237 30.3657 4.71906 30.3834 4.79904 30.3728C4.79904 30.3728 4.82571 30.3692 4.82925 30.3959C4.74218 30.3532 4.74218 30.3532 4.80259 30.3994C4.74742 30.5967 4.85237 30.3657 4.8328 30.4225C4.85591 30.3923 4.81862 30.3159 4.81507 30.2892C4.82401 30.1524 4.83648 30.0422 4.84542 29.9054C4.87577 29.5215 4.90612 29.1376 4.96314 28.7502C5.03448 28.0624 5.12893 27.3444 5.22693 26.6531C5.45143 25.0767 5.72926 23.4932 6.09061 21.9258C6.17783 21.5615 5.8616 21.2237 5.5275 21.1596C5.14007 21.1026 4.85205 21.3851 4.76128 21.7227C4.40348 23.3168 4.12565 24.9003 3.90469 26.5033C3.79421 27.3048 3.68373 28.1063 3.63011 28.9274C3.56586 29.6685 3.31315 30.6246 3.83188 31.2611C4.83915 32.5109 6.67561 31.0186 7.60179 30.4342C9.03281 29.5656 10.4638 28.6971 11.8949 27.8285C12.6984 27.3418 13.5019 26.8551 14.3054 26.3684C14.956 25.9563 15.8199 25.5159 15.8362 24.6184C15.8435 24.2647 15.6605 23.9092 15.2731 23.8522C14.8857 23.7951 14.4839 24.0385 14.4803 24.4188Z" fill="black"/>
</svg>
